<svg xmlns="http://www.w3.org/2000/svg" viewBox="0 0 1600 900" role="img" aria-labelledby="title desc">
  <title id="title">Buying clothes did not use to be a hobby</title>
  <desc id="desc">A warm illustration of a small wardrobe with shirts, shoes, and a note about buying only what is needed.</desc>
  <defs>
    <linearGradient id="bg" x1="0" x2="1" y1="0" y2="1">
      <stop offset="0" stop-color="#f8fafc"/>
      <stop offset="0.52" stop-color="#eaf2f7"/>
      <stop offset="1" stop-color="#fff7ed"/>
    </linearGradient>
    <linearGradient id="floor" x1="0" x2="1">
      <stop offset="0" stop-color="#d9c5a8"/>
      <stop offset="1" stop-color="#b99167"/>
    </linearGradient>
    <filter id="shadow" x="-20%" y="-20%" width="140%" height="140%">
      <feDropShadow dx="0" dy="18" stdDeviation="22" flood-color="#334155" flood-opacity="0.18"/>
    </filter>
  </defs>
  <rect width="1600" height="900" fill="url(#bg)"/>
  <rect y="690" width="1600" height="210" fill="url(#floor)"/>
  <g opacity="0.18">
    <circle cx="1310" cy="190" r="150" fill="#f59e0b"/>
    <circle cx="210" cy="190" r="115" fill="#38bdf8"/>
  </g>
  <g filter="url(#shadow)">
    <rect x="405" y="155" width="790" height="560" rx="28" fill="#fffaf3" stroke="#d6b98c" stroke-width="10"/>
    <rect x="455" y="220" width="690" height="22" rx="11" fill="#8b5e34"/>
    <rect x="492" y="226" width="10" height="430" rx="5" fill="#b08968"/>
    <rect x="1098" y="226" width="10" height="430" rx="5" fill="#b08968"/>
    <rect x="455" y="654" width="690" height="22" rx="11" fill="#8b5e34"/>
  </g>
  <g>
    <path d="M612 244c0 34-45 34-45 0" fill="none" stroke="#475569" stroke-width="8" stroke-linecap="round"/>
    <path d="M589 282l-96 46 42 97 39-19v190h132V406l39 19 42-97-96-46-35 32h-32z" fill="#1f766e"/>
    <path d="M839 244c0 34-45 34-45 0" fill="none" stroke="#475569" stroke-width="8" stroke-linecap="round"/>
    <path d="M816 282l-82 42 36 84 31-16v204h104V392l31 16 36-84-82-42-27 29h-20z" fill="#d97706"/>
    <path d="M1018 244c0 34-45 34-45 0" fill="none" stroke="#475569" stroke-width="8" stroke-linecap="round"/>
    <path d="M996 282l-76 38 34 78 28-14v212h96V384l28 14 34-78-76-38-24 28h-20z" fill="#334155"/>
  </g>
  <g>
    <rect x="500" y="606" width="260" height="30" rx="15" fill="#e2e8f0"/>
    <path d="M512 603c20-34 63-41 101-22 34 18 72 25 120 7 17 14 28 29 32 45H512z" fill="#f8fafc" stroke="#94a3b8" stroke-width="6"/>
    <rect x="840" y="606" width="260" height="30" rx="15" fill="#e2e8f0"/>
    <path d="M852 603c20-34 63-41 101-22 34 18 72 25 120 7 17 14 28 29 32 45H852z" fill="#f8fafc" stroke="#94a3b8" stroke-width="6"/>
  </g>
  <g transform="translate(1010 470) rotate(-4)">
    <rect width="300" height="215" rx="16" fill="#fff" stroke="#cbd5e1" stroke-width="5"/>
    <text x="150" y="70" text-anchor="middle" font-family="Arial, sans-serif" font-size="28" font-weight="700" fill="#0f172a">BUY WHAT</text>
    <text x="150" y="112" text-anchor="middle" font-family="Arial, sans-serif" font-size="28" font-weight="700" fill="#0f172a">YOU NEED</text>
    <text x="150" y="158" text-anchor="middle" font-family="Arial, sans-serif" font-size="24" fill="#475569">not what</text>
    <text x="150" y="190" text-anchor="middle" font-family="Arial, sans-serif" font-size="24" fill="#475569">scrolling suggests</text>
  </g>
  <text x="800" y="815" text-anchor="middle" font-family="Georgia, serif" font-size="64" font-weight="700" fill="#0f172a">Buying Clothes Didn't Use to Be a Hobby</text>
</svg>
